REM DIRINDEX 1\2,1\3,1\4,1\5\6,1\5\7,1\8
REM DIRNAME cjc115,folder01,folder02,folder03,folder04,folder05,folder06,folder07
TITLE ""
FILE "147 Åy147ÅzUnit8 (1669 compassion_1680 strenuous).mp3" MP3
  TRACK 01 AUDIO
    TITLE "0:"
    INDEX 01 00:00:00
  TRACK 02 AUDIO
    TITLE "2:cjc115_5720"
    INDEX 01 00:00:07
  TRACK 03 AUDIO
    TITLE "0:"
    INDEX 01 00:01:32
  TRACK 04 AUDIO
    TITLE "3:cjc115_5721"
    INDEX 01 00:01:42
  TRACK 05 AUDIO
    TITLE "0:"
    INDEX 01 00:02:57
  TRACK 06 AUDIO
    TITLE "4:cjc115_5722"
    INDEX 01 00:02:67
  TRACK 07 AUDIO
    TITLE "0:"
    INDEX 01 00:06:31
  TRACK 08 AUDIO
    TITLE "2:cjc115_5723"
    INDEX 01 00:07:41
  TRACK 09 AUDIO
    TITLE "0:"
    INDEX 01 00:09:02
  TRACK 10 AUDIO
    TITLE "3:cjc115_5724"
    INDEX 01 00:09:12
  TRACK 11 AUDIO
    TITLE "0:"
    INDEX 01 00:11:29
  TRACK 12 AUDIO
    TITLE "4:cjc115_5725"
    INDEX 01 00:11:42
  TRACK 13 AUDIO
    TITLE "0:"
    INDEX 01 00:15:07
  TRACK 14 AUDIO
    TITLE "2:cjc115_5726"
    INDEX 01 00:16:16
  TRACK 15 AUDIO
    TITLE "0:"
    INDEX 01 00:17:39
  TRACK 16 AUDIO
    TITLE "3:cjc115_5727"
    INDEX 01 00:17:47
  TRACK 17 AUDIO
    TITLE "0:"
    INDEX 01 00:18:66
  TRACK 18 AUDIO
    TITLE "4:cjc115_5728"
    INDEX 01 00:19:01
  TRACK 19 AUDIO
    TITLE "0:"
    INDEX 01 00:23:59
  TRACK 20 AUDIO
    TITLE "2:cjc115_5729"
    INDEX 01 00:24:65
  TRACK 21 AUDIO
    TITLE "0:"
    INDEX 01 00:26:18
  TRACK 22 AUDIO
    TITLE "3:cjc115_5730"
    INDEX 01 00:26:28
  TRACK 23 AUDIO
    TITLE "0:"
    INDEX 01 00:28:29
  TRACK 24 AUDIO
    TITLE "4:cjc115_5731"
    INDEX 01 00:28:39
  TRACK 25 AUDIO
    TITLE "0:"
    INDEX 01 00:32:48
  TRACK 26 AUDIO
    TITLE "2:cjc115_5732"
    INDEX 01 00:33:56
  TRACK 27 AUDIO
    TITLE "0:"
    INDEX 01 00:35:21
  TRACK 28 AUDIO
    TITLE "3:cjc115_5733"
    INDEX 01 00:35:33
  TRACK 29 AUDIO
    TITLE "0:"
    INDEX 01 00:36:56
  TRACK 30 AUDIO
    TITLE "4:cjc115_5734"
    INDEX 01 00:36:64
  TRACK 31 AUDIO
    TITLE "0:"
    INDEX 01 00:41:34
  TRACK 32 AUDIO
    TITLE "2:cjc115_5735"
    INDEX 01 00:42:41
  TRACK 33 AUDIO
    TITLE "0:"
    INDEX 01 00:43:56
  TRACK 34 AUDIO
    TITLE "3:cjc115_5736"
    INDEX 01 00:43:64
  TRACK 35 AUDIO
    TITLE "0:"
    INDEX 01 00:45:12
  TRACK 36 AUDIO
    TITLE "4:cjc115_5737"
    INDEX 01 00:45:22
  TRACK 37 AUDIO
    TITLE "0:"
    INDEX 01 00:49:51
  TRACK 38 AUDIO
    TITLE "2:cjc115_5738"
    INDEX 01 00:50:54
  TRACK 39 AUDIO
    TITLE "0:"
    INDEX 01 00:51:56
  TRACK 40 AUDIO
    TITLE "3:cjc115_5739"
    INDEX 01 00:51:67
  TRACK 41 AUDIO
    TITLE "0:"
    INDEX 01 00:53:25
  TRACK 42 AUDIO
    TITLE "4:cjc115_5740"
    INDEX 01 00:53:35
  TRACK 43 AUDIO
    TITLE "0:"
    INDEX 01 00:56:33
  TRACK 44 AUDIO
    TITLE "2:cjc115_5741"
    INDEX 01 00:57:39
  TRACK 45 AUDIO
    TITLE "0:"
    INDEX 01 00:58:60
  TRACK 46 AUDIO
    TITLE "3:cjc115_5742"
    INDEX 01 00:58:66
  TRACK 47 AUDIO
    TITLE "0:"
    INDEX 01 01:00:04
  TRACK 48 AUDIO
    TITLE "4:cjc115_5743"
    INDEX 01 01:00:13
  TRACK 49 AUDIO
    TITLE "0:"
    INDEX 01 01:03:61
  TRACK 50 AUDIO
    TITLE "2:cjc115_5744"
    INDEX 01 01:04:68
  TRACK 51 AUDIO
    TITLE "0:"
    INDEX 01 01:06:18
  TRACK 52 AUDIO
    TITLE "3:cjc115_5745"
    INDEX 01 01:06:28
  TRACK 53 AUDIO
    TITLE "0:"
    INDEX 01 01:08:54
  TRACK 54 AUDIO
    TITLE "4:cjc115_5746"
    INDEX 01 01:08:64
  TRACK 55 AUDIO
    TITLE "0:"
    INDEX 01 01:12:36
  TRACK 56 AUDIO
    TITLE "2:cjc115_5747"
    INDEX 01 01:13:40
  TRACK 57 AUDIO
    TITLE "0:"
    INDEX 01 01:14:41
  TRACK 58 AUDIO
    TITLE "3:cjc115_5748"
    INDEX 01 01:14:49
  TRACK 59 AUDIO
    TITLE "0:"
    INDEX 01 01:15:50
  TRACK 60 AUDIO
    TITLE "4:cjc115_5749"
    INDEX 01 01:15:56
  TRACK 61 AUDIO
    TITLE "0:"
    INDEX 01 01:18:47
  TRACK 62 AUDIO
    TITLE "2:cjc115_5750"
    INDEX 01 01:19:56
  TRACK 63 AUDIO
    TITLE "0:"
    INDEX 01 01:20:65
  TRACK 64 AUDIO
    TITLE "3:cjc115_5751"
    INDEX 01 01:21:00
  TRACK 65 AUDIO
    TITLE "0:"
    INDEX 01 01:23:28
  TRACK 66 AUDIO
    TITLE "4:cjc115_5752"
    INDEX 01 01:23:36
  TRACK 67 AUDIO
    TITLE "0:"
    INDEX 01 01:27:26
  TRACK 68 AUDIO
    TITLE "2:cjc115_5753"
    INDEX 01 01:28:33
  TRACK 69 AUDIO
    TITLE "0:"
    INDEX 01 01:29:60
  TRACK 70 AUDIO
    TITLE "3:cjc115_5754"
    INDEX 01 01:29:70
  TRACK 71 AUDIO
    TITLE "0:"
    INDEX 01 01:32:04
  TRACK 72 AUDIO
    TITLE "4:cjc115_5755"
    INDEX 01 01:32:13
  TRACK 73 AUDIO
    TITLE "0:"
    INDEX 01 01:35:51
